# xmcd CD database file
#
# Track frame offsets:
#	150
#	21250
#	32322
#	45872
#	53905
#	68435
#	79580
#	92522
#	106192
#	117275
#	137620
#	149302
#	162882
#	173677
#	185732
#	196997
#
# Disc length: 2816 seconds
#
# Revision: 3
# Processed by: cddbd v1.5.2PL0 Copyright (c) Steve Scherf et al.
# Submitted via: CDex 1.51
#
DISCID=c10afe10
DTITLE=Richard Clayderman - LIVE
DYEAR=1900
DGENRE=New Age
TTITLE0=Medley I
TTITLE1=Love Me Tender
TTITLE2=Melodie Des Souvenirs
TTITLE3=Rondo Petit Enfant
TTITLE4=Don't Cry For Me Argentina
TTITLE5=Tristesse
TTITLE6=Help
TTITLE7=Triste Coeur
TTITLE8=Premiers Sourires de Vanessa
TTITLE9=Medley II
TTITLE10=Aline
TTITLE11=Lettre A Ma Mere
TTITLE12=Bach Gammon
TTITLE13=Lara's Theme
TTITLE14=Ballade Pour Adelime
TTITLE15=Pour Elise
EXTD=
EXTT0=
EXTT1=
EXTT2=
EXTT3=
EXTT4=
EXTT5=
EXTT6=
EXTT7=
EXTT8=
EXTT9=
EXTT10=
EXTT11=
EXTT12=
EXTT13=
EXTT14=
EXTT15=
PLAYORDER=
